HIERARCHY
ROOT SpineBase
{
  OFFSET 0.000000 0.000000 0.000000
  CHANNELS 6 Xposition Yposition Zposition Zrotation Xrotation Yrotation
  JOINT SpineMid
  {
    OFFSET 0.000000 29.333936 0.000000
    CHANNELS 3 Zrotation Xrotation Yrotation
    JOINT SpineShoulder
    {
      OFFSET -0.077174 21.756832 -0.730385
      CHANNELS 3 Zrotation Xrotation Yrotation
      JOINT Neck
      {
        OFFSET -0.058722 7.199326 -0.568661
        CHANNELS 3 Zrotation Xrotation Yrotation
        JOINT Head
        {
          OFFSET -1.516661 11.273224 0.341551
          CHANNELS 3 Zrotation Xrotation Yrotation
          End Site
          {
            OFFSET 0 0 0
          }
        }
      }
      JOINT ShoulderLeft
      {
        OFFSET -16.083569 -2.362648 4.222395
        CHANNELS 3 Zrotation Xrotation Yrotation
        JOINT ElbowLeft
        {
          OFFSET -3.784646 -28.389334 1.874735
          CHANNELS 3 Zrotation Xrotation Yrotation
          JOINT WristLeft
          {
            OFFSET -2.215237 -20.948132 -5.493458
            CHANNELS 3 Zrotation Xrotation Yrotation
            JOINT HandLeft
            {
              OFFSET 1.415210 -5.420049 -1.938315
              CHANNELS 3 Zrotation Xrotation Yrotation
              JOINT HandTipLeft
              {
                OFFSET 0.365611 -6.897556 -2.081822
                CHANNELS 3 Zrotation Xrotation Yrotation
                End Site
                {
                  OFFSET 0 0 0
                }
              }
              JOINT ThumbLeft
              {
                OFFSET -3.662516 -0.479676 -1.357347
                CHANNELS 3 Zrotation Xrotation Yrotation
                End Site
                {
                  OFFSET 0 0 0
                }
              }
            }
          }
        }
      }
      JOINT ShoulderRight
      {
        OFFSET 15.415771 -2.092460 -5.324791
        CHANNELS 3 Zrotation Xrotation Yrotation
        JOINT ElbowRight
        {
          OFFSET 6.690812 -23.675866 -1.971984
          CHANNELS 3 Zrotation Xrotation Yrotation
          JOINT WristRight
          {
            OFFSET -0.816783 -22.356233 -6.405827
            CHANNELS 3 Zrotation Xrotation Yrotation
            JOINT HandRight
            {
              OFFSET -2.492046 -7.025457 -1.057529
              CHANNELS 3 Zrotation Xrotation Yrotation
              JOINT HandTipRight
              {
                OFFSET -0.052136 -6.955094 -1.848113
                CHANNELS 3 Zrotation Xrotation Yrotation
                End Site
                {
                  OFFSET 0 0 0
                }
              }
              JOINT ThumbRight
              {
                OFFSET 1.877201 -3.407741 -2.001299
                CHANNELS 3 Zrotation Xrotation Yrotation
                End Site
                {
                  OFFSET 0 0 0
                }
              }
            }
          }
        }
      }
    }
  }
  JOINT HipLeft
  {
    OFFSET -5.835671 0.507991 -1.869140
    CHANNELS 3 Zrotation Xrotation Yrotation
    JOINT KneeLeft
    {
      OFFSET -7.943760 -28.449552 0.165653
      CHANNELS 3 Zrotation Xrotation Yrotation
      JOINT AnkleLeft
      {
        OFFSET -2.315810 -38.181755 3.964542
        CHANNELS 3 Zrotation Xrotation Yrotation
        JOINT FootLeft
        {
          OFFSET -3.450828 -2.375364 -15.370011
          CHANNELS 3 Zrotation Xrotation Yrotation
          End Site
          {
            OFFSET 0 0 0
          }
        }
      }
    }
  }
  JOINT HipRight
  {
    OFFSET 5.229580 0.785361 -4.986751
    CHANNELS 3 Zrotation Xrotation Yrotation
    JOINT KneeRight
    {
      OFFSET 6.331479 -25.577846 0.637895
      CHANNELS 3 Zrotation Xrotation Yrotation
      JOINT AnkleRight
      {
        OFFSET 0.477551 -38.737703 10.055905
        CHANNELS 3 Zrotation Xrotation Yrotation
        JOINT FootRight
        {
          OFFSET -2.810428 -7.865363 -5.865314
          CHANNELS 3 Zrotation Xrotation Yrotation
          End Site
          {
            OFFSET 0 0 0
          }
        }
      }
    }
  }
}
MOTION
Frames: 12
Frame Time: 0.033333
32.230085 76.004605 377.051180 -0.000000 0.000000 15.735070 0.000000 0.000000 -15.735070 -0.000000 0.000000 0.000000 -0.000000 0.000000 0.000000 0.000000 0.000000 0.000000 -0.000000 0.000000 0.000000 -0.000000 0.000000 0.000000 -0.000000 0.000000 0.000000 -0.000000 0.000000 0.000000 0.000000 0.000000 0.000000 0.000000 0.000000 0.000000 -0.000000 0.000000 0.000000 -0.000000 0.000000 0.000000 -0.000000 0.000000 0.000000 -0.000000 0.000000 0.000000 0.000000 0.000000 0.000000 0.000000 0.000000 0.000000 0.000000 0.000000 -15.735070 -0.000000 0.000000 0.000000 -0.000000 0.000000 0.000000 0.000000 0.000000 0.000000 0.000000 0.000000 -15.735070 -0.000000 0.000000 0.000000 -0.000000 0.000000 0.000000 0.000000 0.000000 0.000000
32.219548 76.010920 377.068269 0.002548 -0.027817 15.831367 0.005137 0.027457 -15.831367 -0.000000 0.000000 0.000000 -0.000000 0.000000 0.000000 0.000000 0.000000 0.000000 -0.000000 0.000000 0.000000 -0.000000 0.000000 0.000000 -1.390859 -0.316772 0.412580 2.999078 -0.200610 -0.934043 0.000000 0.000000 0.000000 0.000000 0.000000 0.000000 -0.000000 0.000000 0.000000 -0.000000 0.000000 0.000000 2.523746 -1.343794 0.127555 -2.521447 1.348105 -0.068284 0.000000 0.000000 0.000000 0.000000 0.000000 0.000000 0.005137 0.027457 -15.831367 -0.000000 0.000000 0.000000 1.517192 -6.430064 -0.617741 0.000000 0.000000 0.000000 -0.766075 -0.656457 -16.064643 0.702111 1.670688 0.271254 -7.154385 6.976231 2.591523 0.000000 0.000000 0.000000
32.208568 76.016664 377.076443 -0.000794 -0.053452 15.930972 0.015435 0.051181 -15.930980 -0.000000 0.000000 0.000000 -0.000000 0.000000 0.000000 0.000000 0.000000 0.000000 -0.000000 0.000000 0.000000 -0.000000 0.000000 0.000000 -2.434776 -0.525667 0.727649 5.334170 -0.419300 -1.675386 0.000000 0.000000 0.000000 0.000000 0.000000 0.000000 -0.000000 0.000000 0.000000 -0.000000 0.000000 0.000000 4.428684 -2.231967 0.214731 -4.423682 2.241877 -0.041817 0.000000 0.000000 0.000000 0.000000 0.000000 0.000000 0.015435 0.051181 -15.930980 -0.000000 0.000000 0.000000 3.023671 -13.013297 -1.062636 0.000000 0.000000 0.000000 -1.330666 -1.147373 -16.345429 1.208286 3.016359 0.465739 -12.729466 11.744920 5.020781 0.000000 0.000000 0.000000
32.197145 76.021838 377.075703 -0.010029 -0.076906 16.033869 0.030881 0.071145 -16.033895 -0.000000 0.000000 0.000000 -0.000000 0.000000 0.000000 0.000000 0.000000 0.000000 -0.000000 0.000000 0.000000 -0.369916 0.819515 0.012960 -2.808397 -1.451592 0.909252 7.055011 -0.621319 -2.229997 0.000000 0.000000 0.000000 0.000000 0.000000 0.000000 -0.000000 0.000000 0.000000 -0.000000 0.000000 0.000000 5.858056 -2.756538 0.241737 -5.853225 2.766808 0.040807 0.000000 0.000000 0.000000 0.000000 0.000000 0.000000 0.030881 0.071145 -16.033895 -0.000000 0.000000 0.000000 4.405396 -19.071286 -1.298382 0.000000 0.000000 0.000000 -1.713014 -1.493729 -16.579360 1.536544 4.047331 0.596998 -16.711249 14.701696 6.936826 0.000000 0.000000 0.000000
32.185278 76.026441 377.066048 -0.025164 -0.098183 16.140039 0.051466 0.087318 -16.140100 -0.000000 0.000000 0.000000 -0.000000 0.000000 0.000000 0.000000 0.000000 0.000000 -0.000000 0.000000 0.000000 -0.442320 0.940094 0.020156 -3.208007 -1.582534 1.055215 8.194519 -0.782662 -2.604160 0.000000 0.000000 0.000000 0.000000 0.000000 0.000000 -0.000000 0.000000 0.000000 -0.000000 0.000000 0.000000 6.904742 -2.971063 0.197788 -6.903788 2.973288 0.160880 0.000000 0.000000 0.000000 0.000000 0.000000 0.000000 0.051466 0.087318 -16.140100 -0.000000 0.000000 0.000000 5.526792 -23.884088 -1.344026 0.000000 0.000000 0.000000 -1.925354 -1.709656 -16.767944 1.698808 4.770034 0.673745 -19.215364 16.266461 8.217856 0.000000 0.000000 0.000000
32.172969 76.030473 377.047478 -0.046205 -0.117284 16.249460 0.077177 0.099670 -16.249574 -0.000000 0.000000 0.000000 -0.000000 0.000000 0.000000 0.000000 0.000000 0.000000 -0.000000 0.000000 0.000000 -0.490432 0.987477 0.028335 -3.378739 -1.545087 1.144621 8.769875 -0.887820 -2.802684 0.000000 0.000000 0.000000 0.000000 0.000000 0.000000 -0.000000 0.000000 0.000000 -0.000000 0.000000 0.000000 7.626936 -2.900315 0.074657 -7.632880 2.884553 0.311171 0.000000 0.000000 0.000000 0.000000 0.000000 0.000000 0.077177 0.099670 -16.249574 -0.000000 0.000000 0.000000 6.251249 -26.883342 -1.268224 0.000000 0.000000 0.000000 -1.973869 -1.803586 -16.912049 1.702325 5.188296 0.700864 -20.353750 16.708218 8.844530 0.000000 0.000000 0.000000
32.160565 76.032626 377.011201 -0.084479 -0.134316 16.377518 0.118923 0.105046 -16.377727 -0.000000 0.000000 0.000000 -0.000000 0.000000 0.000000 0.000000 0.000000 0.000000 -0.000000 0.000000 0.000000 -0.470157 0.944245 0.027244 -3.375507 -1.682949 1.086587 8.983803 -1.028082 -2.845390 0.000000 0.000000 0.000000 0.000000 0.000000 0.000000 -0.000000 0.000000 0.000000 -0.000000 0.000000 0.000000 7.792594 -2.320392 -0.198976 -9.000520 0.854086 0.876824 0.000000 0.000000 0.000000 0.000000 0.000000 0.000000 0.118923 0.105046 -16.377727 -0.000000 0.000000 0.000000 7.117924 -30.300068 -1.053342 0.000000 0.000000 0.000000 -1.812825 -1.724201 -17.009211 1.524046 5.360836 0.664263 -20.453695 14.301946 9.336520 0.000000 0.000000 0.000000
32.150059 76.032018 376.964509 -0.120625 -0.147229 16.514887 0.157501 0.106865 -16.515189 -0.000000 0.000000 0.000000 -0.000000 0.000000 0.000000 0.000000 0.000000 0.000000 -0.000000 0.000000 0.000000 -0.385725 0.885444 0.010473 -3.151438 -1.251509 1.109177 8.369428 -0.956263 -2.688179 0.000000 0.000000 0.000000 0.000000 0.000000 0.000000 -0.000000 0.000000 0.000000 0.316609 -0.895015 -0.055677 7.548781 -1.005596 -0.454329 -9.447567 0.875185 1.111627 0.000000 0.000000 0.000000 0.000000 0.000000 0.000000 0.157501 0.106865 -16.515189 -0.000000 0.000000 0.000000 7.125267 -30.256287 -0.917371 0.000000 0.000000 0.000000 -1.470323 -1.539455 -17.069150 1.230086 5.007688 0.589119 -19.058321 7.405492 9.913305 0.000000 0.000000 0.000000
32.136270 76.037366 376.920944 -0.157082 -0.159650 16.607300 0.196159 0.108094 -16.607703 -0.000000 0.000000 0.000000 0.863067 0.354950 0.018910 0.000000 0.000000 0.000000 -0.000000 0.000000 0.000000 -0.000000 0.000000 0.000000 -2.752729 0.016548 0.995506 6.936700 -1.160191 -2.273075 0.000000 0.000000 0.000000 0.000000 0.000000 0.000000 -0.000000 0.000000 0.000000 0.625022 -1.617794 -0.111631 7.671758 0.496115 -0.898916 -10.125730 2.531608 1.463600 0.000000 0.000000 0.000000 0.000000 0.000000 0.000000 0.196159 0.108094 -16.607703 -0.000000 0.000000 0.000000 6.259420 -26.754805 -0.869956 0.000000 0.000000 0.000000 -0.780559 -1.177782 -17.005498 0.606409 4.259738 0.430255 -16.442234 8.124941 8.156322 0.000000 0.000000 0.000000
32.120941 76.046289 376.885184 -0.182504 -0.171556 16.658142 0.224024 0.112039 -16.658635 -0.000000 0.000000 0.000000 0.938875 0.480328 0.032201 0.000000 0.000000 0.000000 0.098768 -0.834750 0.118483 -0.097052 0.834951 -0.117056 -1.909635 1.286032 1.040549 4.782672 -1.913054 -1.821463 0.000000 0.000000 0.000000 0.000000 0.000000 0.000000 -0.000000 0.000000 0.000000 1.017101 -2.409190 -0.183185 7.379819 2.395585 -1.420565 -9.975752 1.013445 1.695159 0.000000 0.000000 0.000000 0.000000 0.000000 0.000000 0.224024 0.112039 -16.658635 -0.000000 0.000000 0.000000 4.717213 -20.339681 -0.766953 0.000000 0.000000 0.000000 0.224024 0.112039 -16.658635 -0.134589 2.359932 -0.003085 -10.076492 11.746002 3.070535 0.000000 0.000000 0.000000
32.113969 76.054056 376.856121 -0.188999 -0.174490 16.653539 0.231078 0.113006 -16.654054 -0.000000 0.000000 0.000000 0.942780 0.559812 0.042093 0.000000 0.000000 0.000000 0.207270 -0.881577 0.132774 -0.205251 0.882049 -0.129599 -1.440625 2.071955 1.078868 2.041492 0.268221 -1.070712 0.000000 0.000000 0.000000 0.000000 0.000000 0.000000 -0.000000 0.000000 0.000000 1.691279 -3.132278 -0.326668 5.815782 4.717827 -1.824012 -8.252098 0.878444 1.772548 0.000000 0.000000 0.000000 0.000000 0.000000 0.000000 0.231078 0.113006 -16.654054 -0.000000 0.000000 0.000000 2.797642 -12.128292 -0.444475 0.000000 0.000000 0.000000 -0.372737 -0.895404 -16.947499 0.026799 3.560718 0.263254 -6.681221 7.956666 1.689444 0.000000 0.000000 0.000000
32.124369 76.045448 376.846346 -0.164469 -0.193367 16.631742 0.212934 0.138202 -16.632276 -0.000000 0.000000 0.000000 0.906267 0.584977 0.046560 0.000000 0.000000 0.000000 0.385065 -0.985750 0.160137 -0.382365 0.986800 -0.153532 -0.681143 5.231225 1.617541 -0.167622 -2.005133 -1.199925 0.000000 0.000000 0.000000 0.000000 0.000000 0.000000 -0.000000 0.000000 0.000000 2.151506 -3.223413 -0.442076 3.400539 6.646646 -1.993533 -6.649723 0.306217 2.121273 0.000000 0.000000 0.000000 0.000000 0.000000 0.000000 0.212934 0.138202 -16.632276 -0.000000 0.000000 0.000000 1.846303 -8.113624 -0.019093 0.000000 0.000000 0.000000 -0.477010 -1.050594 -16.976764 -0.225923 3.876573 0.254823 -1.248358 -5.897014 2.550457 0.000000 0.000000 0.000000
